<?xml version="1.0" standalone="no"?><!DOCTYPE svg PUBLIC "-//W3C//DTD SVG 1.1//EN" "http://www.w3.org/Graphics/SVG/1.1/DTD/svg11.dtd"><svg t="1616465794299" class="icon" viewBox="0 0 1024 1024" version="1.1" xmlns="http://www.w3.org/2000/svg" p-id="2073" xmlns:xlink="http://www.w3.org/1999/xlink" width="200" height="200"><defs><style type="text/css"></style></defs><path d="M512 0.346901c-282.578844 0-511.653099 229.076302-511.653099 511.653099 0 282.578844 229.074256 511.653099 511.653099 511.653099 282.576797 0 511.653099-229.074256 511.653099-511.653099C1023.653099 229.42218 794.576797 0.346901 512 0.346901zM792.560884 367.299387 448.857914 711.002356c-7.506974 7.506974-17.411555 11.205203-27.306926 11.159154-9.894348 0.045025-19.800975-3.65218-27.307949-11.159154L231.43707 548.195364c-14.923898-14.923898-14.923898-39.3451 0-54.267974 14.923898-14.923898 39.3451-14.923898 54.268998 0l135.843898 135.843898 316.741921-316.741921c14.923898-14.923898 39.3451-14.923898 54.268998 0S807.485805 352.375489 792.560884 367.299387z" p-id="2074" fill="#33cc33"></path></svg>